<mxfile host="app.diagrams.net" modified="2021-06-27T15:42:20.681Z" agent="5.0 (Windows NT 10.0; Win64; x64) AppleWebKit/537.36 (KHTML, like Gecko) Chrome/91.0.4472.114 Safari/537.36" etag="ehROn7rGBqNqmbcom0Dc" version="14.8.1" type="github">
  <diagram id="TYVyTrR4eJwqvNRYr55k" name="Page-1">
    <mxGraphModel dx="1422" dy="832" grid="1" gridSize="10" guides="1" tooltips="1" connect="1" arrows="1" fold="1" page="1" pageScale="1" pageWidth="850" pageHeight="1100" math="0" shadow="0">
      <root>
        <mxCell id="0" />
        <mxCell id="1" parent="0" />
        <mxCell id="mOoH6CRl-uPgWCGxMb5Z-5" value="PATIENT" style="shape=table;startSize=30;container=1;collapsible=1;childLayout=tableLayout;fixedRows=1;rowLines=0;fontStyle=1;align=center;resizeLast=1;" parent="1" vertex="1">
          <mxGeometry x="170" y="40" width="180" height="310" as="geometry" />
        </mxCell>
        <mxCell id="mOoH6CRl-uPgWCGxMb5Z-6" value="" style="shape=partialRectangle;collapsible=0;dropTarget=0;pointerEvents=0;fillColor=none;top=0;left=0;bottom=1;right=0;points=[[0,0.5],[1,0.5]];portConstraint=eastwest;" parent="mOoH6CRl-uPgWCGxMb5Z-5" vertex="1">
          <mxGeometry y="30" width="180" height="30" as="geometry" />
        </mxCell>
        <mxCell id="mOoH6CRl-uPgWCGxMb5Z-7" value="PK" style="shape=partialRectangle;connectable=0;fillColor=none;top=0;left=0;bottom=0;right=0;fontStyle=1;overflow=hidden;" parent="mOoH6CRl-uPgWCGxMb5Z-6" vertex="1">
          <mxGeometry width="30" height="30" as="geometry" />
        </mxCell>
        <mxCell id="mOoH6CRl-uPgWCGxMb5Z-8" value="patientPid" style="shape=partialRectangle;connectable=0;fillColor=none;top=0;left=0;bottom=0;right=0;align=left;spacingLeft=6;fontStyle=5;overflow=hidden;" parent="mOoH6CRl-uPgWCGxMb5Z-6" vertex="1">
          <mxGeometry x="30" width="150" height="30" as="geometry" />
        </mxCell>
        <mxCell id="mOoH6CRl-uPgWCGxMb5Z-9" value="" style="shape=partialRectangle;collapsible=0;dropTarget=0;pointerEvents=0;fillColor=none;top=0;left=0;bottom=0;right=0;points=[[0,0.5],[1,0.5]];portConstraint=eastwest;" parent="mOoH6CRl-uPgWCGxMb5Z-5" vertex="1">
          <mxGeometry y="60" width="180" height="30" as="geometry" />
        </mxCell>
        <mxCell id="mOoH6CRl-uPgWCGxMb5Z-10" value="" style="shape=partialRectangle;connectable=0;fillColor=none;top=0;left=0;bottom=0;right=0;editable=1;overflow=hidden;" parent="mOoH6CRl-uPgWCGxMb5Z-9" vertex="1">
          <mxGeometry width="30" height="30" as="geometry" />
        </mxCell>
        <mxCell id="mOoH6CRl-uPgWCGxMb5Z-11" value="FirstName" style="shape=partialRectangle;connectable=0;fillColor=none;top=0;left=0;bottom=0;right=0;align=left;spacingLeft=6;overflow=hidden;" parent="mOoH6CRl-uPgWCGxMb5Z-9" vertex="1">
          <mxGeometry x="30" width="150" height="30" as="geometry" />
        </mxCell>
        <mxCell id="mOoH6CRl-uPgWCGxMb5Z-12" value="" style="shape=partialRectangle;collapsible=0;dropTarget=0;pointerEvents=0;fillColor=none;top=0;left=0;bottom=0;right=0;points=[[0,0.5],[1,0.5]];portConstraint=eastwest;" parent="mOoH6CRl-uPgWCGxMb5Z-5" vertex="1">
          <mxGeometry y="90" width="180" height="30" as="geometry" />
        </mxCell>
        <mxCell id="mOoH6CRl-uPgWCGxMb5Z-13" value="" style="shape=partialRectangle;connectable=0;fillColor=none;top=0;left=0;bottom=0;right=0;editable=1;overflow=hidden;" parent="mOoH6CRl-uPgWCGxMb5Z-12" vertex="1">
          <mxGeometry width="30" height="30" as="geometry" />
        </mxCell>
        <mxCell id="mOoH6CRl-uPgWCGxMb5Z-14" value="LastName" style="shape=partialRectangle;connectable=0;fillColor=none;top=0;left=0;bottom=0;right=0;align=left;spacingLeft=6;overflow=hidden;" parent="mOoH6CRl-uPgWCGxMb5Z-12" vertex="1">
          <mxGeometry x="30" width="150" height="30" as="geometry" />
        </mxCell>
        <mxCell id="mOoH6CRl-uPgWCGxMb5Z-15" value="" style="shape=partialRectangle;collapsible=0;dropTarget=0;pointerEvents=0;fillColor=none;top=0;left=0;bottom=0;right=0;points=[[0,0.5],[1,0.5]];portConstraint=eastwest;" parent="mOoH6CRl-uPgWCGxMb5Z-5" vertex="1">
          <mxGeometry y="120" width="180" height="30" as="geometry" />
        </mxCell>
        <mxCell id="mOoH6CRl-uPgWCGxMb5Z-16" value="" style="shape=partialRectangle;connectable=0;fillColor=none;top=0;left=0;bottom=0;right=0;editable=1;overflow=hidden;" parent="mOoH6CRl-uPgWCGxMb5Z-15" vertex="1">
          <mxGeometry width="30" height="30" as="geometry" />
        </mxCell>
        <mxCell id="mOoH6CRl-uPgWCGxMb5Z-17" value="MiddleName" style="shape=partialRectangle;connectable=0;fillColor=none;top=0;left=0;bottom=0;right=0;align=left;spacingLeft=6;overflow=hidden;" parent="mOoH6CRl-uPgWCGxMb5Z-15" vertex="1">
          <mxGeometry x="30" width="150" height="30" as="geometry" />
        </mxCell>
        <mxCell id="mOoH6CRl-uPgWCGxMb5Z-18" value="" style="shape=partialRectangle;collapsible=0;dropTarget=0;pointerEvents=0;fillColor=none;top=0;left=0;bottom=0;right=0;points=[[0,0.5],[1,0.5]];portConstraint=eastwest;" parent="1" vertex="1">
          <mxGeometry x="170" y="190" width="180" height="30" as="geometry" />
        </mxCell>
        <mxCell id="mOoH6CRl-uPgWCGxMb5Z-19" value="" style="shape=partialRectangle;connectable=0;fillColor=none;top=0;left=0;bottom=0;right=0;editable=1;overflow=hidden;" parent="mOoH6CRl-uPgWCGxMb5Z-18" vertex="1">
          <mxGeometry width="30" height="30" as="geometry" />
        </mxCell>
        <mxCell id="mOoH6CRl-uPgWCGxMb5Z-20" value="Gender" style="shape=partialRectangle;connectable=0;fillColor=none;top=0;left=0;bottom=0;right=0;align=left;spacingLeft=6;overflow=hidden;" parent="mOoH6CRl-uPgWCGxMb5Z-18" vertex="1">
          <mxGeometry x="30" width="150" height="30" as="geometry" />
        </mxCell>
        <mxCell id="mOoH6CRl-uPgWCGxMb5Z-21" value="" style="shape=partialRectangle;collapsible=0;dropTarget=0;pointerEvents=0;fillColor=none;top=0;left=0;bottom=0;right=0;points=[[0,0.5],[1,0.5]];portConstraint=eastwest;" parent="1" vertex="1">
          <mxGeometry x="170" y="220" width="180" height="30" as="geometry" />
        </mxCell>
        <mxCell id="mOoH6CRl-uPgWCGxMb5Z-22" value="" style="shape=partialRectangle;connectable=0;fillColor=none;top=0;left=0;bottom=0;right=0;editable=1;overflow=hidden;" parent="mOoH6CRl-uPgWCGxMb5Z-21" vertex="1">
          <mxGeometry width="30" height="30" as="geometry" />
        </mxCell>
        <mxCell id="mOoH6CRl-uPgWCGxMb5Z-23" value="Gender" style="shape=partialRectangle;connectable=0;fillColor=none;top=0;left=0;bottom=0;right=0;align=left;spacingLeft=6;overflow=hidden;" parent="mOoH6CRl-uPgWCGxMb5Z-21" vertex="1">
          <mxGeometry x="30" width="150" height="30" as="geometry" />
        </mxCell>
        <mxCell id="mOoH6CRl-uPgWCGxMb5Z-24" value="Visit" style="shape=table;startSize=30;container=1;collapsible=1;childLayout=tableLayout;fixedRows=1;rowLines=0;fontStyle=1;align=center;resizeLast=1;" parent="1" vertex="1">
          <mxGeometry x="480" y="60" width="180" height="204" as="geometry" />
        </mxCell>
        <mxCell id="mOoH6CRl-uPgWCGxMb5Z-25" value="" style="shape=partialRectangle;collapsible=0;dropTarget=0;pointerEvents=0;fillColor=none;top=0;left=0;bottom=1;right=0;points=[[0,0.5],[1,0.5]];portConstraint=eastwest;" parent="mOoH6CRl-uPgWCGxMb5Z-24" vertex="1">
          <mxGeometry y="30" width="180" height="30" as="geometry" />
        </mxCell>
        <mxCell id="mOoH6CRl-uPgWCGxMb5Z-26" value="PK" style="shape=partialRectangle;connectable=0;fillColor=none;top=0;left=0;bottom=0;right=0;fontStyle=1;overflow=hidden;" parent="mOoH6CRl-uPgWCGxMb5Z-25" vertex="1">
          <mxGeometry width="30" height="30" as="geometry" />
        </mxCell>
        <mxCell id="mOoH6CRl-uPgWCGxMb5Z-27" value="visitPid" style="shape=partialRectangle;connectable=0;fillColor=none;top=0;left=0;bottom=0;right=0;align=left;spacingLeft=6;fontStyle=5;overflow=hidden;" parent="mOoH6CRl-uPgWCGxMb5Z-25" vertex="1">
          <mxGeometry x="30" width="150" height="30" as="geometry" />
        </mxCell>
        <mxCell id="mOoH6CRl-uPgWCGxMb5Z-28" value="" style="shape=partialRectangle;collapsible=0;dropTarget=0;pointerEvents=0;fillColor=none;top=0;left=0;bottom=0;right=0;points=[[0,0.5],[1,0.5]];portConstraint=eastwest;" parent="mOoH6CRl-uPgWCGxMb5Z-24" vertex="1">
          <mxGeometry y="60" width="180" height="30" as="geometry" />
        </mxCell>
        <mxCell id="mOoH6CRl-uPgWCGxMb5Z-29" value="PK" style="shape=partialRectangle;connectable=0;fillColor=none;top=0;left=0;bottom=0;right=0;editable=1;overflow=hidden;" parent="mOoH6CRl-uPgWCGxMb5Z-28" vertex="1">
          <mxGeometry width="30" height="30" as="geometry" />
        </mxCell>
        <mxCell id="mOoH6CRl-uPgWCGxMb5Z-30" value="visitID" style="shape=partialRectangle;connectable=0;fillColor=none;top=0;left=0;bottom=0;right=0;align=left;spacingLeft=6;overflow=hidden;" parent="mOoH6CRl-uPgWCGxMb5Z-28" vertex="1">
          <mxGeometry x="30" width="150" height="30" as="geometry" />
        </mxCell>
        <mxCell id="mOoH6CRl-uPgWCGxMb5Z-31" value="" style="shape=partialRectangle;collapsible=0;dropTarget=0;pointerEvents=0;fillColor=none;top=0;left=0;bottom=0;right=0;points=[[0,0.5],[1,0.5]];portConstraint=eastwest;" parent="mOoH6CRl-uPgWCGxMb5Z-24" vertex="1">
          <mxGeometry y="90" width="180" height="30" as="geometry" />
        </mxCell>
        <mxCell id="mOoH6CRl-uPgWCGxMb5Z-32" value="" style="shape=partialRectangle;connectable=0;fillColor=none;top=0;left=0;bottom=0;right=0;editable=1;overflow=hidden;" parent="mOoH6CRl-uPgWCGxMb5Z-31" vertex="1">
          <mxGeometry width="30" height="30" as="geometry" />
        </mxCell>
        <mxCell id="mOoH6CRl-uPgWCGxMb5Z-33" value="admitTime" style="shape=partialRectangle;connectable=0;fillColor=none;top=0;left=0;bottom=0;right=0;align=left;spacingLeft=6;overflow=hidden;" parent="mOoH6CRl-uPgWCGxMb5Z-31" vertex="1">
          <mxGeometry x="30" width="150" height="30" as="geometry" />
        </mxCell>
        <mxCell id="mOoH6CRl-uPgWCGxMb5Z-34" value="" style="shape=partialRectangle;collapsible=0;dropTarget=0;pointerEvents=0;fillColor=none;top=0;left=0;bottom=0;right=0;points=[[0,0.5],[1,0.5]];portConstraint=eastwest;" parent="mOoH6CRl-uPgWCGxMb5Z-24" vertex="1">
          <mxGeometry y="120" width="180" height="30" as="geometry" />
        </mxCell>
        <mxCell id="mOoH6CRl-uPgWCGxMb5Z-35" value="" style="shape=partialRectangle;connectable=0;fillColor=none;top=0;left=0;bottom=0;right=0;editable=1;overflow=hidden;" parent="mOoH6CRl-uPgWCGxMb5Z-34" vertex="1">
          <mxGeometry width="30" height="30" as="geometry" />
        </mxCell>
        <mxCell id="mOoH6CRl-uPgWCGxMb5Z-36" value="DischrageTime" style="shape=partialRectangle;connectable=0;fillColor=none;top=0;left=0;bottom=0;right=0;align=left;spacingLeft=6;overflow=hidden;" parent="mOoH6CRl-uPgWCGxMb5Z-34" vertex="1">
          <mxGeometry x="30" width="150" height="30" as="geometry" />
        </mxCell>
        <mxCell id="mOoH6CRl-uPgWCGxMb5Z-37" value="Inpatient (T/F)" style="shape=partialRectangle;connectable=0;fillColor=none;top=0;left=0;bottom=0;right=0;align=left;spacingLeft=6;overflow=hidden;" parent="1" vertex="1">
          <mxGeometry x="510" y="210" width="150" height="30" as="geometry" />
        </mxCell>
        <mxCell id="mOoH6CRl-uPgWCGxMb5Z-39" value="Doctor" style="shape=table;startSize=30;container=1;collapsible=1;childLayout=tableLayout;fixedRows=1;rowLines=0;fontStyle=1;align=center;resizeLast=1;fillColor=#FFC4C4;" parent="1" vertex="1">
          <mxGeometry x="1040" y="430" width="180" height="160" as="geometry" />
        </mxCell>
        <mxCell id="mOoH6CRl-uPgWCGxMb5Z-40" value="" style="shape=partialRectangle;collapsible=0;dropTarget=0;pointerEvents=0;fillColor=#FFC4C4;top=0;left=0;bottom=1;right=0;points=[[0,0.5],[1,0.5]];portConstraint=eastwest;" parent="mOoH6CRl-uPgWCGxMb5Z-39" vertex="1">
          <mxGeometry y="30" width="180" height="30" as="geometry" />
        </mxCell>
        <mxCell id="mOoH6CRl-uPgWCGxMb5Z-41" value="PK" style="shape=partialRectangle;connectable=0;fillColor=#FFC4C4;top=0;left=0;bottom=0;right=0;fontStyle=1;overflow=hidden;" parent="mOoH6CRl-uPgWCGxMb5Z-40" vertex="1">
          <mxGeometry width="30" height="30" as="geometry" />
        </mxCell>
        <mxCell id="mOoH6CRl-uPgWCGxMb5Z-42" value="doctorpID" style="shape=partialRectangle;connectable=0;fillColor=#FFC4C4;top=0;left=0;bottom=0;right=0;align=left;spacingLeft=6;fontStyle=5;overflow=hidden;" parent="mOoH6CRl-uPgWCGxMb5Z-40" vertex="1">
          <mxGeometry x="30" width="150" height="30" as="geometry" />
        </mxCell>
        <mxCell id="mOoH6CRl-uPgWCGxMb5Z-43" value="" style="shape=partialRectangle;collapsible=0;dropTarget=0;pointerEvents=0;fillColor=#FFC4C4;top=0;left=0;bottom=0;right=0;points=[[0,0.5],[1,0.5]];portConstraint=eastwest;" parent="mOoH6CRl-uPgWCGxMb5Z-39" vertex="1">
          <mxGeometry y="60" width="180" height="30" as="geometry" />
        </mxCell>
        <mxCell id="mOoH6CRl-uPgWCGxMb5Z-44" value="" style="shape=partialRectangle;connectable=0;fillColor=#FFC4C4;top=0;left=0;bottom=0;right=0;editable=1;overflow=hidden;" parent="mOoH6CRl-uPgWCGxMb5Z-43" vertex="1">
          <mxGeometry width="30" height="30" as="geometry" />
        </mxCell>
        <mxCell id="mOoH6CRl-uPgWCGxMb5Z-45" value="firstName" style="shape=partialRectangle;connectable=0;fillColor=#FFC4C4;top=0;left=0;bottom=0;right=0;align=left;spacingLeft=6;overflow=hidden;" parent="mOoH6CRl-uPgWCGxMb5Z-43" vertex="1">
          <mxGeometry x="30" width="150" height="30" as="geometry" />
        </mxCell>
        <mxCell id="mOoH6CRl-uPgWCGxMb5Z-46" value="" style="shape=partialRectangle;collapsible=0;dropTarget=0;pointerEvents=0;fillColor=#FFC4C4;top=0;left=0;bottom=0;right=0;points=[[0,0.5],[1,0.5]];portConstraint=eastwest;" parent="mOoH6CRl-uPgWCGxMb5Z-39" vertex="1">
          <mxGeometry y="90" width="180" height="30" as="geometry" />
        </mxCell>
        <mxCell id="mOoH6CRl-uPgWCGxMb5Z-47" value="" style="shape=partialRectangle;connectable=0;fillColor=#FFC4C4;top=0;left=0;bottom=0;right=0;editable=1;overflow=hidden;" parent="mOoH6CRl-uPgWCGxMb5Z-46" vertex="1">
          <mxGeometry width="30" height="30" as="geometry" />
        </mxCell>
        <mxCell id="mOoH6CRl-uPgWCGxMb5Z-48" value="lastName" style="shape=partialRectangle;connectable=0;fillColor=#FFC4C4;top=0;left=0;bottom=0;right=0;align=left;spacingLeft=6;overflow=hidden;" parent="mOoH6CRl-uPgWCGxMb5Z-46" vertex="1">
          <mxGeometry x="30" width="150" height="30" as="geometry" />
        </mxCell>
        <mxCell id="mOoH6CRl-uPgWCGxMb5Z-49" value="" style="shape=partialRectangle;collapsible=0;dropTarget=0;pointerEvents=0;fillColor=#FFC4C4;top=0;left=0;bottom=0;right=0;points=[[0,0.5],[1,0.5]];portConstraint=eastwest;" parent="mOoH6CRl-uPgWCGxMb5Z-39" vertex="1">
          <mxGeometry y="120" width="180" height="30" as="geometry" />
        </mxCell>
        <mxCell id="mOoH6CRl-uPgWCGxMb5Z-50" value="" style="shape=partialRectangle;connectable=0;fillColor=#FFC4C4;top=0;left=0;bottom=0;right=0;editable=1;overflow=hidden;" parent="mOoH6CRl-uPgWCGxMb5Z-49" vertex="1">
          <mxGeometry width="30" height="30" as="geometry" />
        </mxCell>
        <mxCell id="mOoH6CRl-uPgWCGxMb5Z-51" value="association" style="shape=partialRectangle;connectable=0;fillColor=#FFC4C4;top=0;left=0;bottom=0;right=0;align=left;spacingLeft=6;overflow=hidden;" parent="mOoH6CRl-uPgWCGxMb5Z-49" vertex="1">
          <mxGeometry x="30" width="150" height="30" as="geometry" />
        </mxCell>
        <mxCell id="mOoH6CRl-uPgWCGxMb5Z-53" value="Docter_visit" style="shape=table;startSize=20;container=1;collapsible=1;childLayout=tableLayout;fixedRows=1;rowLines=0;fontStyle=1;align=center;resizeLast=1;" parent="1" vertex="1">
          <mxGeometry x="410" y="330" width="180" height="160" as="geometry" />
        </mxCell>
        <mxCell id="mOoH6CRl-uPgWCGxMb5Z-54" value="" style="shape=partialRectangle;collapsible=0;dropTarget=0;pointerEvents=0;fillColor=none;top=0;left=0;bottom=1;right=0;points=[[0,0.5],[1,0.5]];portConstraint=eastwest;" parent="mOoH6CRl-uPgWCGxMb5Z-53" vertex="1">
          <mxGeometry y="20" width="180" height="30" as="geometry" />
        </mxCell>
        <mxCell id="mOoH6CRl-uPgWCGxMb5Z-55" value="PK" style="shape=partialRectangle;connectable=0;fillColor=none;top=0;left=0;bottom=0;right=0;fontStyle=1;overflow=hidden;" parent="mOoH6CRl-uPgWCGxMb5Z-54" vertex="1">
          <mxGeometry width="30" height="30" as="geometry" />
        </mxCell>
        <mxCell id="mOoH6CRl-uPgWCGxMb5Z-56" value="UniqueID" style="shape=partialRectangle;connectable=0;fillColor=none;top=0;left=0;bottom=0;right=0;align=left;spacingLeft=6;fontStyle=5;overflow=hidden;" parent="mOoH6CRl-uPgWCGxMb5Z-54" vertex="1">
          <mxGeometry x="30" width="150" height="30" as="geometry" />
        </mxCell>
        <mxCell id="mOoH6CRl-uPgWCGxMb5Z-57" value="" style="shape=partialRectangle;collapsible=0;dropTarget=0;pointerEvents=0;fillColor=none;top=0;left=0;bottom=0;right=0;points=[[0,0.5],[1,0.5]];portConstraint=eastwest;" parent="mOoH6CRl-uPgWCGxMb5Z-53" vertex="1">
          <mxGeometry y="50" width="180" height="30" as="geometry" />
        </mxCell>
        <mxCell id="mOoH6CRl-uPgWCGxMb5Z-58" value="CPK" style="shape=partialRectangle;connectable=0;fillColor=none;top=0;left=0;bottom=0;right=0;editable=1;overflow=hidden;" parent="mOoH6CRl-uPgWCGxMb5Z-57" vertex="1">
          <mxGeometry width="30" height="30" as="geometry" />
        </mxCell>
        <mxCell id="mOoH6CRl-uPgWCGxMb5Z-59" value="doctorPid" style="shape=partialRectangle;connectable=0;fillColor=none;top=0;left=0;bottom=0;right=0;align=left;spacingLeft=6;overflow=hidden;" parent="mOoH6CRl-uPgWCGxMb5Z-57" vertex="1">
          <mxGeometry x="30" width="150" height="30" as="geometry" />
        </mxCell>
        <mxCell id="mOoH6CRl-uPgWCGxMb5Z-60" value="" style="shape=partialRectangle;collapsible=0;dropTarget=0;pointerEvents=0;fillColor=none;top=0;left=0;bottom=0;right=0;points=[[0,0.5],[1,0.5]];portConstraint=eastwest;" parent="mOoH6CRl-uPgWCGxMb5Z-53" vertex="1">
          <mxGeometry y="80" width="180" height="30" as="geometry" />
        </mxCell>
        <mxCell id="mOoH6CRl-uPgWCGxMb5Z-61" value="CPK" style="shape=partialRectangle;connectable=0;fillColor=none;top=0;left=0;bottom=0;right=0;editable=1;overflow=hidden;" parent="mOoH6CRl-uPgWCGxMb5Z-60" vertex="1">
          <mxGeometry width="30" height="30" as="geometry" />
        </mxCell>
        <mxCell id="mOoH6CRl-uPgWCGxMb5Z-62" value="VisitPID" style="shape=partialRectangle;connectable=0;fillColor=none;top=0;left=0;bottom=0;right=0;align=left;spacingLeft=6;overflow=hidden;" parent="mOoH6CRl-uPgWCGxMb5Z-60" vertex="1">
          <mxGeometry x="30" width="150" height="30" as="geometry" />
        </mxCell>
        <mxCell id="mOoH6CRl-uPgWCGxMb5Z-63" value="" style="shape=partialRectangle;collapsible=0;dropTarget=0;pointerEvents=0;fillColor=none;top=0;left=0;bottom=0;right=0;points=[[0,0.5],[1,0.5]];portConstraint=eastwest;" parent="mOoH6CRl-uPgWCGxMb5Z-53" vertex="1">
          <mxGeometry y="110" width="180" height="30" as="geometry" />
        </mxCell>
        <mxCell id="mOoH6CRl-uPgWCGxMb5Z-64" value="" style="shape=partialRectangle;connectable=0;fillColor=none;top=0;left=0;bottom=0;right=0;editable=1;overflow=hidden;" parent="mOoH6CRl-uPgWCGxMb5Z-63" vertex="1">
          <mxGeometry width="30" height="30" as="geometry" />
        </mxCell>
        <mxCell id="mOoH6CRl-uPgWCGxMb5Z-65" value="" style="shape=partialRectangle;connectable=0;fillColor=none;top=0;left=0;bottom=0;right=0;align=left;spacingLeft=6;overflow=hidden;" parent="mOoH6CRl-uPgWCGxMb5Z-63" vertex="1">
          <mxGeometry x="30" width="150" height="30" as="geometry" />
        </mxCell>
        <mxCell id="mOoH6CRl-uPgWCGxMb5Z-94" value="uri/procedures&lt;br&gt;&lt;br&gt;[{&lt;br&gt;&amp;nbsp; &amp;nbsp;&quot;catogory:Colon,&lt;br&gt;details:{&lt;br&gt;name: &quot;,,,&quot;,&lt;br&gt;code:&quot;...&quot;&lt;br&gt;}&lt;br&gt;}...&lt;br&gt;]&lt;br&gt;/procedures?category=colen&lt;br&gt;" style="text;html=1;align=center;verticalAlign=middle;resizable=0;points=[];autosize=1;strokeColor=none;" parent="1" vertex="1">
          <mxGeometry x="320" y="930" width="170" height="160" as="geometry" />
        </mxCell>
        <mxCell id="IkJZSKDK2Vf7_5Rg9raK-17" style="edgeStyle=orthogonalEdgeStyle;rounded=0;orthogonalLoop=1;jettySize=auto;html=1;exitX=1;exitY=0.5;exitDx=0;exitDy=0;" edge="1" parent="1" source="IkJZSKDK2Vf7_5Rg9raK-1">
          <mxGeometry relative="1" as="geometry">
            <mxPoint x="1230" y="235" as="targetPoint" />
            <Array as="points">
              <mxPoint x="1360" y="235" />
              <mxPoint x="1360" y="60" />
              <mxPoint x="1230" y="60" />
            </Array>
          </mxGeometry>
        </mxCell>
        <mxCell id="IkJZSKDK2Vf7_5Rg9raK-1" value="Activities" style="shape=table;startSize=30;container=1;collapsible=1;childLayout=tableLayout;fixedRows=1;rowLines=0;fontStyle=1;align=center;resizeLast=1;fillColor=#FFC4C4;" vertex="1" parent="1">
          <mxGeometry x="1040" y="115" width="300" height="240" as="geometry" />
        </mxCell>
        <mxCell id="IkJZSKDK2Vf7_5Rg9raK-2" value="" style="shape=partialRectangle;collapsible=0;dropTarget=0;pointerEvents=0;fillColor=#FFC4C4;top=0;left=0;bottom=1;right=0;points=[[0,0.5],[1,0.5]];portConstraint=eastwest;" vertex="1" parent="IkJZSKDK2Vf7_5Rg9raK-1">
          <mxGeometry y="30" width="300" height="30" as="geometry" />
        </mxCell>
        <mxCell id="IkJZSKDK2Vf7_5Rg9raK-3" value="PK" style="shape=partialRectangle;connectable=0;fillColor=#FFC4C4;top=0;left=0;bottom=0;right=0;fontStyle=1;overflow=hidden;" vertex="1" parent="IkJZSKDK2Vf7_5Rg9raK-2">
          <mxGeometry width="30" height="30" as="geometry" />
        </mxCell>
        <mxCell id="IkJZSKDK2Vf7_5Rg9raK-4" value="AcitivityID" style="shape=partialRectangle;connectable=0;fillColor=#FFC4C4;top=0;left=0;bottom=0;right=0;align=left;spacingLeft=6;fontStyle=5;overflow=hidden;" vertex="1" parent="IkJZSKDK2Vf7_5Rg9raK-2">
          <mxGeometry x="30" width="270" height="30" as="geometry" />
        </mxCell>
        <mxCell id="IkJZSKDK2Vf7_5Rg9raK-5" value="" style="shape=partialRectangle;collapsible=0;dropTarget=0;pointerEvents=0;fillColor=#FFC4C4;top=0;left=0;bottom=0;right=0;points=[[0,0.5],[1,0.5]];portConstraint=eastwest;" vertex="1" parent="IkJZSKDK2Vf7_5Rg9raK-1">
          <mxGeometry y="60" width="300" height="30" as="geometry" />
        </mxCell>
        <mxCell id="IkJZSKDK2Vf7_5Rg9raK-6" value="" style="shape=partialRectangle;connectable=0;fillColor=#FFC4C4;top=0;left=0;bottom=0;right=0;editable=1;overflow=hidden;" vertex="1" parent="IkJZSKDK2Vf7_5Rg9raK-5">
          <mxGeometry width="30" height="30" as="geometry" />
        </mxCell>
        <mxCell id="IkJZSKDK2Vf7_5Rg9raK-7" value="Type (Procedure, Consult)" style="shape=partialRectangle;connectable=0;fillColor=#FFC4C4;top=0;left=0;bottom=0;right=0;align=left;spacingLeft=6;overflow=hidden;" vertex="1" parent="IkJZSKDK2Vf7_5Rg9raK-5">
          <mxGeometry x="30" width="270" height="30" as="geometry" />
        </mxCell>
        <mxCell id="IkJZSKDK2Vf7_5Rg9raK-8" value="" style="shape=partialRectangle;collapsible=0;dropTarget=0;pointerEvents=0;fillColor=#FFC4C4;top=0;left=0;bottom=0;right=0;points=[[0,0.5],[1,0.5]];portConstraint=eastwest;" vertex="1" parent="IkJZSKDK2Vf7_5Rg9raK-1">
          <mxGeometry y="90" width="300" height="30" as="geometry" />
        </mxCell>
        <mxCell id="IkJZSKDK2Vf7_5Rg9raK-9" value="" style="shape=partialRectangle;connectable=0;fillColor=#FFC4C4;top=0;left=0;bottom=0;right=0;editable=1;overflow=hidden;" vertex="1" parent="IkJZSKDK2Vf7_5Rg9raK-8">
          <mxGeometry width="30" height="30" as="geometry" />
        </mxCell>
        <mxCell id="IkJZSKDK2Vf7_5Rg9raK-10" value="Category (procedureName, or consultName)" style="shape=partialRectangle;connectable=0;fillColor=#FFC4C4;top=0;left=0;bottom=0;right=0;align=left;spacingLeft=6;overflow=hidden;" vertex="1" parent="IkJZSKDK2Vf7_5Rg9raK-8">
          <mxGeometry x="30" width="270" height="30" as="geometry" />
        </mxCell>
        <mxCell id="IkJZSKDK2Vf7_5Rg9raK-11" value="" style="shape=partialRectangle;collapsible=0;dropTarget=0;pointerEvents=0;fillColor=#FFC4C4;top=0;left=0;bottom=0;right=0;points=[[0,0.5],[1,0.5]];portConstraint=eastwest;" vertex="1" parent="IkJZSKDK2Vf7_5Rg9raK-1">
          <mxGeometry y="120" width="300" height="30" as="geometry" />
        </mxCell>
        <mxCell id="IkJZSKDK2Vf7_5Rg9raK-12" value="" style="shape=partialRectangle;connectable=0;fillColor=#FFC4C4;top=0;left=0;bottom=0;right=0;editable=1;overflow=hidden;" vertex="1" parent="IkJZSKDK2Vf7_5Rg9raK-11">
          <mxGeometry width="30" height="30" as="geometry" />
        </mxCell>
        <mxCell id="IkJZSKDK2Vf7_5Rg9raK-13" value="Name (activityName)" style="shape=partialRectangle;connectable=0;fillColor=#FFC4C4;top=0;left=0;bottom=0;right=0;align=left;spacingLeft=6;overflow=hidden;" vertex="1" parent="IkJZSKDK2Vf7_5Rg9raK-11">
          <mxGeometry x="30" width="270" height="30" as="geometry" />
        </mxCell>
        <mxCell id="IkJZSKDK2Vf7_5Rg9raK-15" value="code" style="text;html=1;strokeColor=none;fillColor=none;align=center;verticalAlign=middle;whiteSpace=wrap;rounded=0;" vertex="1" parent="1">
          <mxGeometry x="430" y="690" width="100" height="20" as="geometry" />
        </mxCell>
        <mxCell id="IkJZSKDK2Vf7_5Rg9raK-18" value="patientid&amp;nbsp;" style="text;html=1;strokeColor=none;fillColor=none;align=center;verticalAlign=middle;whiteSpace=wrap;rounded=0;" vertex="1" parent="1">
          <mxGeometry x="510" y="240" width="120" height="20" as="geometry" />
        </mxCell>
        <mxCell id="IkJZSKDK2Vf7_5Rg9raK-19" value="FK" style="text;html=1;strokeColor=none;fillColor=none;align=center;verticalAlign=middle;whiteSpace=wrap;rounded=0;" vertex="1" parent="1">
          <mxGeometry x="480" y="244" width="40" height="20" as="geometry" />
        </mxCell>
        <mxCell id="IkJZSKDK2Vf7_5Rg9raK-20" value="Doctor_Activity" style="shape=table;startSize=20;container=1;collapsible=1;childLayout=tableLayout;fixedRows=1;rowLines=0;fontStyle=1;align=center;resizeLast=1;" vertex="1" parent="1">
          <mxGeometry x="720" y="390" width="180" height="160" as="geometry" />
        </mxCell>
        <mxCell id="IkJZSKDK2Vf7_5Rg9raK-21" value="" style="shape=partialRectangle;collapsible=0;dropTarget=0;pointerEvents=0;fillColor=none;top=0;left=0;bottom=1;right=0;points=[[0,0.5],[1,0.5]];portConstraint=eastwest;" vertex="1" parent="IkJZSKDK2Vf7_5Rg9raK-20">
          <mxGeometry y="20" width="180" height="30" as="geometry" />
        </mxCell>
        <mxCell id="IkJZSKDK2Vf7_5Rg9raK-22" value="PK" style="shape=partialRectangle;connectable=0;fillColor=none;top=0;left=0;bottom=0;right=0;fontStyle=1;overflow=hidden;" vertex="1" parent="IkJZSKDK2Vf7_5Rg9raK-21">
          <mxGeometry width="30" height="30" as="geometry" />
        </mxCell>
        <mxCell id="IkJZSKDK2Vf7_5Rg9raK-23" value="dID" style="shape=partialRectangle;connectable=0;fillColor=none;top=0;left=0;bottom=0;right=0;align=left;spacingLeft=6;fontStyle=5;overflow=hidden;" vertex="1" parent="IkJZSKDK2Vf7_5Rg9raK-21">
          <mxGeometry x="30" width="150" height="30" as="geometry" />
        </mxCell>
        <mxCell id="IkJZSKDK2Vf7_5Rg9raK-24" value="" style="shape=partialRectangle;collapsible=0;dropTarget=0;pointerEvents=0;fillColor=none;top=0;left=0;bottom=0;right=0;points=[[0,0.5],[1,0.5]];portConstraint=eastwest;" vertex="1" parent="IkJZSKDK2Vf7_5Rg9raK-20">
          <mxGeometry y="50" width="180" height="30" as="geometry" />
        </mxCell>
        <mxCell id="IkJZSKDK2Vf7_5Rg9raK-25" value="FK" style="shape=partialRectangle;connectable=0;fillColor=none;top=0;left=0;bottom=0;right=0;editable=1;overflow=hidden;" vertex="1" parent="IkJZSKDK2Vf7_5Rg9raK-24">
          <mxGeometry width="30" height="30" as="geometry" />
        </mxCell>
        <mxCell id="IkJZSKDK2Vf7_5Rg9raK-26" value="doctorid" style="shape=partialRectangle;connectable=0;fillColor=none;top=0;left=0;bottom=0;right=0;align=left;spacingLeft=6;overflow=hidden;" vertex="1" parent="IkJZSKDK2Vf7_5Rg9raK-24">
          <mxGeometry x="30" width="150" height="30" as="geometry" />
        </mxCell>
        <mxCell id="IkJZSKDK2Vf7_5Rg9raK-27" value="" style="shape=partialRectangle;collapsible=0;dropTarget=0;pointerEvents=0;fillColor=none;top=0;left=0;bottom=0;right=0;points=[[0,0.5],[1,0.5]];portConstraint=eastwest;" vertex="1" parent="IkJZSKDK2Vf7_5Rg9raK-20">
          <mxGeometry y="80" width="180" height="30" as="geometry" />
        </mxCell>
        <mxCell id="IkJZSKDK2Vf7_5Rg9raK-28" value="FK" style="shape=partialRectangle;connectable=0;fillColor=none;top=0;left=0;bottom=0;right=0;editable=1;overflow=hidden;" vertex="1" parent="IkJZSKDK2Vf7_5Rg9raK-27">
          <mxGeometry width="30" height="30" as="geometry" />
        </mxCell>
        <mxCell id="IkJZSKDK2Vf7_5Rg9raK-29" value="visitid" style="shape=partialRectangle;connectable=0;fillColor=none;top=0;left=0;bottom=0;right=0;align=left;spacingLeft=6;overflow=hidden;" vertex="1" parent="IkJZSKDK2Vf7_5Rg9raK-27">
          <mxGeometry x="30" width="150" height="30" as="geometry" />
        </mxCell>
        <mxCell id="IkJZSKDK2Vf7_5Rg9raK-30" value="" style="shape=partialRectangle;collapsible=0;dropTarget=0;pointerEvents=0;fillColor=none;top=0;left=0;bottom=0;right=0;points=[[0,0.5],[1,0.5]];portConstraint=eastwest;" vertex="1" parent="IkJZSKDK2Vf7_5Rg9raK-20">
          <mxGeometry y="110" width="180" height="30" as="geometry" />
        </mxCell>
        <mxCell id="IkJZSKDK2Vf7_5Rg9raK-31" value="" style="shape=partialRectangle;connectable=0;fillColor=none;top=0;left=0;bottom=0;right=0;editable=1;overflow=hidden;" vertex="1" parent="IkJZSKDK2Vf7_5Rg9raK-30">
          <mxGeometry width="30" height="30" as="geometry" />
        </mxCell>
        <mxCell id="IkJZSKDK2Vf7_5Rg9raK-32" value="" style="shape=partialRectangle;connectable=0;fillColor=none;top=0;left=0;bottom=0;right=0;align=left;spacingLeft=6;overflow=hidden;" vertex="1" parent="IkJZSKDK2Vf7_5Rg9raK-30">
          <mxGeometry x="30" width="150" height="30" as="geometry" />
        </mxCell>
        <mxCell id="IkJZSKDK2Vf7_5Rg9raK-33" value="acitivityid" style="text;html=1;strokeColor=none;fillColor=none;align=center;verticalAlign=middle;whiteSpace=wrap;rounded=0;" vertex="1" parent="1">
          <mxGeometry x="750" y="500" width="120" height="20" as="geometry" />
        </mxCell>
        <mxCell id="IkJZSKDK2Vf7_5Rg9raK-34" value="FK" style="shape=partialRectangle;connectable=0;fillColor=none;top=0;left=0;bottom=0;right=0;editable=1;overflow=hidden;" vertex="1" parent="1">
          <mxGeometry x="720" y="495" width="30" height="30" as="geometry" />
        </mxCell>
      </root>
    </mxGraphModel>
  </diagram>
</mxfile>
